<?xml version="1.0" encoding="UTF-8" standalone="no"?>
<svg
   width="394pt"
   height="265pt"
   viewBox="0 0 394 264.99999"
   version="1.2"
   id="svg541"
   xmlns:xlink="http://www.w3.org/1999/xlink"
   xmlns="http://www.w3.org/2000/svg"
   xmlns:svg="http://www.w3.org/2000/svg">
  <defs
     id="defs358">
    <g
       id="g356">
      <symbol
         overflow="visible"
         id="glyph0-0">
        <path
           style="stroke:none"
           d=""
           id="path335" />
      </symbol>
      <symbol
         overflow="visible"
         id="glyph0-1">
        <path
           style="stroke:none"
           d="m 9.34375,-17.78125 c -5.03125,0 -8.4375,3.6875 -8.4375,9.171875 0,5.484375 3.390625,9.15625 8.453125,9.15625 2.140625,0 4.015625,-0.640625 5.421875,-1.84375 1.90625,-1.609375 3.03125,-4.3125 3.03125,-7.171875 0,-5.640625 -3.34375,-9.3125 -8.46875,-9.3125 z m 0,1.96875 c 3.78125,0 6.234375,2.859375 6.234375,7.296875 0,4.21875 -2.515625,7.09375 -6.21875,7.09375 -3.75,0 -6.21875,-2.875 -6.21875,-7.1875 0,-4.328125 2.46875,-7.203125 6.203125,-7.203125 z m 0,0"
           id="path338" />
      </symbol>
      <symbol
         overflow="visible"
         id="glyph0-2">
        <path
           style="stroke:none"
           d="m 15.890625,-12.078125 c -0.703125,-3.828125 -2.90625,-5.703125 -6.75,-5.703125 -2.34375,0 -4.25,0.734375 -5.546875,2.1875 -1.578125,1.71875 -2.4375,4.21875 -2.4375,7.046875 0,2.890625 0.890625,5.359375 2.515625,7.0625 1.375,1.390625 3.09375,2.03125 5.375,2.03125 4.265625,0 6.671875,-2.296875 7.203125,-6.9375 H 13.9375 C 13.75,-5.1875 13.515625,-4.375 13.15625,-3.671875 c -0.71875,1.4375 -2.21875,2.25 -4.078125,2.25 -3.484375,0 -5.6875,-2.78125 -5.6875,-7.140625 0,-4.5 2.078125,-7.25 5.484375,-7.25 1.421875,0 2.734375,0.40625 3.46875,1.09375 0.640625,0.609375 1,1.328125 1.265625,2.640625 z m 0,0"
           id="path341" />
      </symbol>
      <symbol
         overflow="visible"
         id="glyph0-3">
        <path
           style="stroke:none"
           d="M 13.21875,-7.96875 V 0 h 2.234375 V -17.5 H 13.21875 v 7.5625 h -9 V -17.5 H 1.984375 V 0 H 4.21875 v -7.96875 z m 0,0"
           id="path344" />
      </symbol>
      <symbol
         overflow="visible"
         id="glyph0-4">
        <path
           style="stroke:none"
           d="M 3.640625,-17.5 H 1.625 V 0 h 2.015625 z m 0,0"
           id="path347" />
      </symbol>
      <symbol
         overflow="visible"
         id="glyph1-0">
        <path
           style="stroke:none"
           d=""
           id="path350" />
      </symbol>
      <symbol
         overflow="visible"
         id="glyph1-1">
        <path
           style="stroke:none"
           d="M 3.984375,-6 H 4.84375 c 1.71875,0 2.640625,0.8125 2.640625,2.375 0,1.640625 -0.984375,2.640625 -2.625,2.640625 -1.75,0 -2.59375,-0.890625 -2.703125,-2.796875 H 0.578125 c 0.0625,1.046875 0.25,1.734375 0.5625,2.3125 0.65625,1.25 1.90625,1.875 3.640625,1.875 2.640625,0 4.328125,-1.578125 4.328125,-4.046875 0,-1.65625 -0.625,-2.546875 -2.15625,-3.09375 1.1875,-0.484375 1.78125,-1.390625 1.78125,-2.703125 0,-2.21875 -1.46875,-3.578125 -3.890625,-3.578125 -2.578125,0 -3.9375,1.4375 -4,4.203125 H 2.4375 c 0.015625,-0.796875 0.078125,-1.25 0.28125,-1.640625 0.359375,-0.75 1.15625,-1.171875 2.140625,-1.171875 1.40625,0 2.25,0.84375 2.25,2.25 0,0.921875 -0.328125,1.46875 -1.03125,1.78125 -0.421875,0.171875 -1,0.25 -2.09375,0.265625 z m 0,0"
           id="path353" />
      </symbol>
    </g>
  </defs>
  <g
     id="surface1"
     transform="translate(-3.8062501,-5.1187496)">
    <g
       style="fill:#000000;fill-opacity:1"
       id="g362"
       transform="translate(3.5799998,3.4609403)">
      <use
         xlink:href="#glyph0-1"
         x="2.9000001"
         y="222.95"
         id="use360" />
    </g>
    <path
       style="fill:#000000;fill-opacity:1;fill-rule:nonzero;stroke:none"
       d="m 84.58,138.60938 v -1 l 0.75,-0.54688 32.60156,18.79688 1,1.60156 -0.85156,0.5"
       id="path364" />
    <path
       style="fill:#000000;fill-opacity:1;fill-rule:nonzero;stroke:none"
       d="m 51.029219,157.96094 -0.847656,-0.5 0.847656,-1.5 31.851562,-18.35156 H 84.58 v 1"
       id="path366" />
    <path
       style="fill:#000000;fill-opacity:1;fill-rule:nonzero;stroke:none"
       d="M 51.029219,196.66016 49.33,197.60938 v -39.59766 l 0.851563,-0.55078 0.847656,0.5"
       id="path368" />
    <path
       style="fill:#000000;fill-opacity:1;fill-rule:nonzero;stroke:none"
       d="m 26.779219,215.0625 -0.847656,-1.45312 26.796875,-15.5 0.851562,1.5 z m 0,0"
       id="path370" />
    <path
       style="fill:#000000;fill-opacity:1;fill-rule:nonzero;stroke:none"
       d="m 23.779219,209.91016 -0.847656,-1.44922 26.847656,-15.5 0.851562,1.5 z m 0,0"
       id="path372" />
    <path
       style="fill:#000000;fill-opacity:1;fill-rule:nonzero;stroke:none"
       d="m 84.58,216.01172 v 1.94922 l -35.25,-20.35156 1.699219,-0.94922 z m 0,0"
       id="path374" />
    <path
       style="fill:#000000;fill-opacity:1;fill-rule:nonzero;stroke:none"
       d="m 118.08,196.66016 0.85156,0.5 v 0.94922 L 84.58,217.96094 v -1.94922"
       id="path376" />
    <path
       style="fill:#000000;fill-opacity:1;fill-rule:nonzero;stroke:none"
       d="m 112.52922,192.96094 0.85156,1.5 -28.402342,16.39844 -0.847657,-1.5 z m 0,0"
       id="path378" />
    <path
       style="fill:#000000;fill-opacity:1;fill-rule:nonzero;stroke:none"
       d="m 119.77922,196.66016 -0.84766,0.5 -0.85156,-0.5 v -38.69922 l 0.85156,-0.5 0.84766,0.5"
       id="path380" />
    <path
       style="fill:#000000;fill-opacity:1;fill-rule:nonzero;stroke:none"
       d="m 153.27922,216.01172 v 0.94922 l -0.84766,0.5 -33.5,-19.35156 v -0.94922 l 0.84766,-0.5"
       id="path382" />
    <path
       style="fill:#000000;fill-opacity:1;fill-rule:nonzero;stroke:none"
       d="m 186.83,196.66016 1.69922,0.94922 -34.39844,19.85156 -0.85156,-0.5 v -0.94922"
       id="path384" />
    <path
       style="fill:#000000;fill-opacity:1;fill-rule:nonzero;stroke:none"
       d="m 181.27922,192.96094 0.85156,1.5 -28.40234,16.39844 -0.84766,-1.5 z m 0,0"
       id="path386" />
    <path
       style="fill:#000000;fill-opacity:1;fill-rule:nonzero;stroke:none"
       d="m 186.83,157.96094 0.85156,-0.5 0.84766,0.5 v 39.64844 L 186.83,196.66016"
       id="path388" />
    <path
       style="fill:#000000;fill-opacity:1;fill-rule:nonzero;stroke:none"
       d="m 153.27922,138.60938 v -1 l 0.85156,-0.5 32.5,18.75 1.05078,1.60156 -0.85156,0.5"
       id="path390" />
    <path
       style="fill:#000000;fill-opacity:1;fill-rule:nonzero;stroke:none"
       d="m 152.43156,137.10938 0.84766,0.5 v 1 l -33.5,19.35156 -0.84766,-0.5 1,-1.60156"
       id="path392" />
    <path
       style="fill:#000000;fill-opacity:1;fill-rule:nonzero;stroke:none"
       d="m 152.43156,97.410159 1.69922,1 v 38.699221 l -0.85156,0.5 -0.84766,-0.5"
       id="path394" />
    <path
       style="fill:#000000;fill-opacity:1;fill-rule:nonzero;stroke:none"
       d="m 187.68156,77.109378 v 1.953125 l -33.55078,19.347656 -1.69922,-1 z m 0,0"
       id="path396" />
    <path
       style="fill:#000000;fill-opacity:1;fill-rule:nonzero;stroke:none"
       d="m 221.18156,96.46094 0.84766,1.449219 -0.84766,0.5 -33.5,-19.347656 v -1.953125"
       id="path398" />
    <path
       style="fill:#000000;fill-opacity:1;fill-rule:nonzero;stroke:none"
       d="m 222.88078,137.01172 -0.85156,0.59766 -0.84766,-0.5 V 98.410159 l 0.84766,-0.5 0.85156,0.652344"
       id="path400" />
    <path
       style="fill:#000000;fill-opacity:1;fill-rule:nonzero;stroke:none"
       d="m 221.18156,137.10938 0.84766,0.5 0.10156,0.95312 -33.60156,19.39844 -0.84766,-0.5 1,-1.60156"
       id="path402" />
    <path
       style="fill:#000000;fill-opacity:1;fill-rule:nonzero;stroke:none"
       d="m 259.43156,148.85938 0.64844,2 -37.94922,-12.29688 -0.10156,-0.95312 0.85156,-0.59766"
       id="path404" />
    <path
       style="fill:#000000;fill-opacity:1;fill-rule:nonzero;stroke:none"
       d="m 282.02922,117.76172 h 2.10156 l -24.05078,33.09766 -0.64844,-2 z m 0,0"
       id="path406" />
    <path
       style="fill:#000000;fill-opacity:1;fill-rule:nonzero;stroke:none"
       d="m 259.43156,86.660159 0.34766,-1 H 260.83 l 23.30078,32.101561 h -2.10156"
       id="path408" />
    <path
       style="fill:#000000;fill-opacity:1;fill-rule:nonzero;stroke:none"
       d="m 259.18156,84.96094 0.59766,0.699219 -0.34766,1 -36.55078,11.902344 -0.85156,-0.652344 1.15234,-1.25"
       id="path410" />
    <g
       style="fill:#000000;fill-opacity:1"
       id="g416"
       transform="translate(3.5799998,3.4609403)">
      <use
         xlink:href="#glyph0-2"
         x="213.95"
         y="64.449997"
         id="use412" />
      <use
         xlink:href="#glyph0-3"
         x="231.278"
         y="64.449997"
         id="use414" />
    </g>
    <g
       style="fill:#000000;fill-opacity:1"
       id="g420"
       transform="translate(3.5799998,3.4609403)">
      <use
         xlink:href="#glyph1-1"
         x="248.6059"
         y="68.949997"
         id="use418" />
    </g>
    <path
       style="fill:#000000;fill-opacity:1;fill-rule:nonzero;stroke:none"
       d="m 221.13078,69.910159 7.59766,0.800781 -5.54688,25.949219 -1.15234,1.25 -0.84766,-1.449219"
       id="path422" />
    <g
       style="fill:#000000;fill-opacity:1"
       id="g426"
       transform="translate(3.5799998,3.4609403)">
      <use
         xlink:href="#glyph0-3"
         x="175.39999"
         y="123.75"
         id="use424" />
    </g>
    <path
       style="fill:#000000;fill-opacity:1;fill-rule:nonzero;stroke:none"
       d="m 183.83,129.46094 h 7.64844 l -2.79688,26.39844 -1,1.60156 -1.05078,-1.60156"
       id="path428" />
    <g
       style="fill:#000000;fill-opacity:1"
       id="g432"
       transform="translate(3.5799998,3.4609403)">
      <use
         xlink:href="#glyph0-3"
         x="141.05"
         y="183.3"
         id="use430" />
    </g>
    <path
       style="fill:#000000;fill-opacity:1;fill-rule:nonzero;stroke:none"
       d="m 157.13078,167.26172 h -7.65234 l 0.20312,-1.69922 h 7.25 z m 0,0"
       id="path434" />
    <path
       style="fill:#000000;fill-opacity:1;fill-rule:nonzero;stroke:none"
       d="m 156.58,162.5625 h -6.55078 l 0.19922,-1.75 h 6.15234 z m 0,0"
       id="path436" />
    <path
       style="fill:#000000;fill-opacity:1;fill-rule:nonzero;stroke:none"
       d="M 156.02922,157.8125 H 150.58 l 0.19922,-1.70312 H 155.83 Z m 0,0"
       id="path438" />
    <path
       style="fill:#000000;fill-opacity:1;fill-rule:nonzero;stroke:none"
       d="m 155.47844,153.0625 h -4.34766 l 0.19922,-1.70312 h 3.94922 z m 0,0"
       id="path440" />
    <path
       style="fill:#000000;fill-opacity:1;fill-rule:nonzero;stroke:none"
       d="m 154.88078,148.3125 h -3.19922 l 0.19922,-1.70312 h 2.80078 z m 0,0"
       id="path442" />
    <path
       style="fill:#000000;fill-opacity:1;fill-rule:nonzero;stroke:none"
       d="m 154.33,143.5625 h -2.10156 l 0.20312,-1.70312 h 1.69922 z m 0,0"
       id="path444" />
    <g
       style="fill:#000000;fill-opacity:1"
       id="g448"
       transform="translate(3.5799998,3.4609403)">
      <use
         xlink:href="#glyph0-3"
         x="209.8"
         y="183.3"
         id="use446" />
    </g>
    <path
       style="fill:#000000;fill-opacity:1;fill-rule:nonzero;stroke:none"
       d="m 225.88078,167.26172 h -7.65234 l 0.20312,-1.69922 h 7.25 z m 0,0"
       id="path450" />
    <path
       style="fill:#000000;fill-opacity:1;fill-rule:nonzero;stroke:none"
       d="m 225.33,162.5625 h -6.55078 l 0.19922,-1.75 h 6.15234 z m 0,0"
       id="path452" />
    <path
       style="fill:#000000;fill-opacity:1;fill-rule:nonzero;stroke:none"
       d="M 224.72844,157.8125 H 219.33 l 0.19922,-1.70312 h 5 z m 0,0"
       id="path454" />
    <path
       style="fill:#000000;fill-opacity:1;fill-rule:nonzero;stroke:none"
       d="m 224.18156,153.0625 h -4.30078 l 0.19922,-1.70312 h 3.89844 z m 0,0"
       id="path456" />
    <path
       style="fill:#000000;fill-opacity:1;fill-rule:nonzero;stroke:none"
       d="m 223.63078,148.3125 h -3.19922 l 0.19922,-1.70312 h 2.80078 z m 0,0"
       id="path458" />
    <path
       style="fill:#000000;fill-opacity:1;fill-rule:nonzero;stroke:none"
       d="m 223.08,143.5625 h -2.10156 l 0.20312,-1.70312 h 1.69922 z m 0,0"
       id="path460" />
    <g
       style="fill:#000000;fill-opacity:1"
       id="g466"
       transform="translate(3.5799998,3.4609403)">
      <use
         xlink:href="#glyph0-2"
         x="141.05"
         y="262.64999"
         id="use462" />
      <use
         xlink:href="#glyph0-4"
         x="158.37801"
         y="262.64999"
         id="use464" />
    </g>
    <path
       style="fill:#000000;fill-opacity:1;fill-rule:nonzero;stroke:none"
       d="m 154.13078,246.41016 h -1.69922 v -28.94922 l 0.84766,-0.5 0.85156,0.5"
       id="path468" />
    <path
       style="fill:#000000;fill-opacity:1;fill-rule:nonzero;stroke:none"
       d="m 276.88078,48.21094 5.39844,5.949219 -21.44922,31.5 h -1.05078 l -0.59766,-0.699219"
       id="path470" />
    <use
       xlink:href="#glyph0-1"
       x="285.20001"
       y="101.9"
       id="use2071"
       transform="translate(3.6118678,3.5249793)"
       style="fill:#000000;fill-opacity:1" />
    <use
       xlink:href="#glyph0-1"
       x="306.39999"
       y="57.299999"
       id="use2103-3"
       transform="translate(-15.624247,116.31851)"
       style="fill:#000000;fill-opacity:1" />
    <path
       style="fill:#000000;fill-opacity:1;fill-rule:nonzero;stroke:none"
       d="m 318.28762,125.8968 -15.5,26.84679 1.47157,0.84961 15.5,-26.84679 z"
       id="path2109-4" />
    <path
       style="fill:#000000;fill-opacity:1;fill-rule:nonzero;stroke:none"
       d="m 323.4398,128.87141 -15.5,26.84679 1.47156,0.84961 15.5,-26.84679 z m 0,0"
       id="path2107-2" />
    <path
       style="fill:#000000;fill-opacity:1;fill-rule:nonzero;stroke:none"
       d="m 320.10249,130.22024 0.97203,-1.68362 27.43489,0.0292 -0.0888,1.61902 c 0,0 -19.41514,0.0372 -28.31808,0.0354 z"
       id="path2393" />
    <path
       style="fill:#000000;fill-opacity:1;fill-rule:nonzero;stroke:none"
       d="m 320.10249,130.22024 0.97203,-1.68362 -13.74274,-23.7447 -1.35769,0.88645 c 0,0 9.67535,16.83261 14.1284,24.54187 z"
       id="path2395" />
    <path
       style="fill:#000000;fill-opacity:1;fill-rule:nonzero;stroke:none"
       d="m 289.13078,89.562503 -2,7.398437 -1.60156,-0.648437 1.90234,-7 z m 0,0"
       id="path478" />
    <path
       style="fill:#000000;fill-opacity:1;fill-rule:nonzero;stroke:none"
       d="m 284.47844,88.910159 -1.69922,6.300781 -1.59766,-0.648437 1.59766,-5.902344 z m 0,0"
       id="path480" />
    <path
       style="fill:#000000;fill-opacity:1;fill-rule:nonzero;stroke:none"
       d="m 279.77922,88.21094 -1.39844,5.25 -1.60156,-0.648437 1.30078,-4.851563 z m 0,0"
       id="path482" />
    <path
       style="fill:#000000;fill-opacity:1;fill-rule:nonzero;stroke:none"
       d="m 275.13078,87.562503 -1.10156,4.148437 -1.59766,-0.648437 1,-3.75 z m 0,0"
       id="path484" />
    <path
       style="fill:#000000;fill-opacity:1;fill-rule:nonzero;stroke:none"
       d="m 270.47844,86.859378 -0.84766,3.101562 -1.60156,-0.648437 0.75,-2.703125 z m 0,0"
       id="path486" />
    <path
       style="fill:#000000;fill-opacity:1;fill-rule:nonzero;stroke:none"
       d="m 265.77922,86.21094 -0.5,2 -1.59766,-0.648437 0.39844,-1.601563 z m 0,0"
       id="path488" />
    <g
       style="fill:#000000;fill-opacity:1"
       id="g492"
       transform="translate(3.5799998,3.4609403)">
      <use
         xlink:href="#glyph0-3"
         x="220.175"
         y="22.9"
         id="use490" />
    </g>
    <g
       style="fill:#000000;fill-opacity:1"
       id="g496"
       transform="translate(3.5799998,3.4609403)">
      <use
         xlink:href="#glyph1-1"
         x="237.5031"
         y="27.4"
         id="use494" />
    </g>
    <g
       style="fill:#000000;fill-opacity:1"
       id="g500"
       transform="translate(3.5799998,3.4609403)">
      <use
         xlink:href="#glyph0-2"
         x="247.51131"
         y="22.9"
         id="use498" />
    </g>
    <path
       style="fill:#000000;fill-opacity:1;fill-rule:nonzero;stroke:none"
       d="m 265.08,27.761721 1.44922,-0.851562 15.75,27.25 -5.39844,-5.949219 z m 0,0"
       id="path502" />
    <g
       style="fill:#000000;fill-opacity:1"
       id="g506"
       transform="translate(3.5799998,3.4609403)">
      <use
         xlink:href="#glyph0-1"
         x="306.39999"
         y="57.299999"
         id="use504" />
    </g>
    <path
       style="fill:#000000;fill-opacity:1;fill-rule:nonzero;stroke:none"
       d="m 277.88078,49.160159 h 31 V 47.46094 h -31 z m 0,0"
       id="path508" />
    <path
       style="fill:#000000;fill-opacity:1;fill-rule:nonzero;stroke:none"
       d="m 277.88078,55.109378 h 31 v -1.699219 h -31 z m 0,0"
       id="path510" />
    <path
       style="fill:#000000;fill-opacity:1;fill-rule:nonzero;stroke:none"
       d="M 51.029219,119.26172 49.33,116.3125 82.880781,135.66016 84.58,137.60938 h -1.699219"
       id="path512" />
    <path
       style="fill:#000000;fill-opacity:1;fill-rule:nonzero;stroke:none"
       d="m 51.029219,155.96094 -0.847656,1.5 L 49.33,155.76172 V 116.3125 l 1.699219,2.94922"
       id="path514" />
    <g
       style="fill:#000000;fill-opacity:1"
       id="g518"
       transform="translate(3.5799998,3.4609403)">
      <use
         xlink:href="#glyph0-3"
         x="62.049999"
         y="105.25"
         id="use516" />
    </g>
    <path
       style="fill:#000000;fill-opacity:1;fill-rule:nonzero;stroke:none"
       d="m 73.978438,112.91016 7.402343,-2 3.949219,26.15234 -0.75,0.54688 -1.699219,-1.94922"
       id="path520" />
    <g
       style="fill:#000000;fill-opacity:1"
       id="g526"
       transform="translate(3.5799998,3.4609403)">
      <use
         xlink:href="#glyph0-2"
         x="106.7"
         y="123.75"
         id="use522" />
      <use
         xlink:href="#glyph0-3"
         x="124.028"
         y="123.75"
         id="use524" />
    </g>
    <g
       style="fill:#000000;fill-opacity:1"
       id="g530"
       transform="translate(3.5799998,3.4609403)">
      <use
         xlink:href="#glyph1-1"
         x="141.3559"
         y="128.25"
         id="use528" />
    </g>
    <path
       style="fill:#000000;fill-opacity:1;fill-rule:nonzero;stroke:none"
       d="m 115.08,129.76172 h 7.69922 l -2.84766,26.09766 -1,1.60156 -1,-1.60156"
       id="path532" />
    <g
       style="fill:#000000;fill-opacity:1"
       id="g536"
       transform="translate(3.5799998,3.4609403)">
      <use
         xlink:href="#glyph0-3"
         x="3.5999999"
         y="143.60001"
         id="use534" />
    </g>
    <path
       style="fill:#000000;fill-opacity:1;fill-rule:nonzero;stroke:none"
       d="M 24.978438,147.3125 28.779219,140.66016 49.33,155.76172 50.181563,157.46094 49.33,158.01172"
       id="path538" />
    <g
       id="g1345"
       transform="translate(4.8203093,-45.337349)">
      <g
         style="fill:#000000;fill-opacity:1"
         id="g416-8"
         transform="translate(131.69067,117.91951)">
        <use
           xlink:href="#glyph0-2"
           x="213.95"
           y="64.449997"
           id="use412-3" />
        <use
           xlink:href="#glyph0-3"
           x="231.278"
           y="64.449997"
           id="use414-2" />
      </g>
      <g
         style="fill:#000000;fill-opacity:1"
         id="g420-2"
         transform="translate(131.69067,117.91951)">
        <use
           xlink:href="#glyph1-1"
           x="248.6059"
           y="68.949997"
           id="use418-3" />
      </g>
    </g>
  </g>
</svg>
