<?xml version="1.0" encoding="UTF-8" standalone="no"?>
<!-- Generator: Adobe Illustrator 12.0.1, SVG Export Plug-In . SVG Version: 6.00 Build 51448)  -->
<svg
   xmlns:dc="http://purl.org/dc/elements/1.1/"
   xmlns:cc="http://creativecommons.org/ns#"
   xmlns:rdf="http://www.w3.org/1999/02/22-rdf-syntax-ns#"
   xmlns:svg="http://www.w3.org/2000/svg"
   xmlns="http://www.w3.org/2000/svg"
   xmlns:sodipodi="http://sodipodi.sourceforge.net/DTD/sodipodi-0.dtd"
   xmlns:inkscape="http://www.inkscape.org/namespaces/inkscape"
   version="1.1"
   id="Layer_1"
   width="351.787"
   height="261.948"
   viewBox="0 0 351.787 261.948"
   style="overflow:visible;enable-background:new 0 0 351.787 261.948;"
   xml:space="preserve"
   sodipodi:version="0.32"
   inkscape:version="0.46"
   sodipodi:docname="Spironolacton.svg"
   inkscape:output_extension="org.inkscape.output.svg.inkscape"><metadata
   id="metadata160"><rdf:RDF><cc:Work
       rdf:about=""><dc:format>image/svg+xml</dc:format><dc:type
         rdf:resource="http://purl.org/dc/dcmitype/StillImage" /></cc:Work></rdf:RDF></metadata><defs
   id="defs158"><inkscape:perspective
   sodipodi:type="inkscape:persp3d"
   inkscape:vp_x="0 : 130.974 : 1"
   inkscape:vp_y="0 : 1000 : 0"
   inkscape:vp_z="351.78699 : 130.974 : 1"
   inkscape:persp3d-origin="175.89349 : 87.315999 : 1"
   id="perspective162" />
	

	

	

	

	

	

	

	
</defs><sodipodi:namedview
   inkscape:window-height="675"
   inkscape:window-width="661"
   inkscape:pageshadow="2"
   inkscape:pageopacity="0.0"
   guidetolerance="10.0"
   gridtolerance="10.0"
   objecttolerance="10.0"
   borderopacity="1.0"
   bordercolor="#666666"
   pagecolor="#ffffff"
   id="base"
   showgrid="false"
   inkscape:zoom="1.5463903"
   inkscape:cx="175.89349"
   inkscape:cy="130.974"
   inkscape:window-x="22"
   inkscape:window-y="22"
   inkscape:current-layer="Layer_1" />
<path
   id="path5"
   d="M 8.7947,190.64543 C 8.7947,187.93508 9.5224,185.81468 10.9778,184.28233 C 12.4332,182.74903 14.3123,181.98238 16.61415,181.98238 C 18.1218,181.98238 19.4803,182.34243 20.6906,183.06253 C 21.9009,183.78358 22.82335,184.78678 23.4589,186.07498 C 24.09445,187.36318 24.4108,188.82428 24.4108,190.45638 C 24.4108,192.11223 24.0764,193.59328 23.40855,194.89953 C 22.7407,196.20578 21.79355,197.19568 20.56805,197.86733 C 19.34255,198.53898 18.0211,198.87528 16.60275,198.87528 C 15.06565,198.87528 13.69195,198.50383 12.48165,197.76188 C 11.27135,197.01993 10.3546,196.00533 9.73045,194.72188 C 9.1063,193.43843 8.7947,192.07803 8.7947,190.64543 z M 11.0215,190.67298 C 11.0215,192.63948 11.55065,194.18893 12.60895,195.32133 C 13.66725,196.45373 14.99535,197.01898 16.59135,197.01898 C 18.21775,197.01898 19.5563,196.44708 20.60795,195.30423 C 21.65865,194.16138 22.184,192.53973 22.184,190.43928 C 22.184,189.11118 21.9598,187.95123 21.51045,186.96038 C 21.0611,185.96953 20.4037,185.20098 19.53825,184.65568 C 18.6728,184.11038 17.7019,183.83773 16.62555,183.83773 C 15.09605,183.83773 13.77935,184.36308 12.6764,185.41283 C 11.57345,186.46258 11.0215,188.21628 11.0215,190.67298 z"
   style="fill:#231f20" />
<path
   id="path9"
   d="M 327.3772,21.401975 C 327.3772,18.691625 328.1049,16.571225 329.56125,15.038875 C 331.0157,13.505575 332.89575,12.738925 335.19665,12.738925 C 336.70525,12.738925 338.06375,13.098975 339.2731,13.819075 C 340.4834,14.540125 341.4068,15.543325 342.0414,16.831525 C 342.676,18.119725 342.9933,19.580825 342.9933,21.212925 C 342.9933,22.868775 342.6589,24.349825 341.99105,25.656075 C 341.3232,26.962325 340.37605,27.952225 339.15055,28.623875 C 337.926,29.295525 336.6036,29.631825 335.18525,29.631825 C 333.6491,29.631825 332.27445,29.260375 331.06415,28.518425 C 329.85385,27.776475 328.93805,26.761875 328.31295,25.478425 C 327.68785,24.194975 327.3772,22.835525 327.3772,21.401975 z M 329.60305,21.430475 C 329.60305,23.396975 330.1322,24.946425 331.19145,26.078825 C 332.2488,27.210275 333.57785,27.776475 335.1729,27.776475 C 336.80025,27.776475 338.13785,27.204575 339.19045,26.061725 C 340.2402,24.918875 340.76555,23.297225 340.76555,21.196775 C 340.76555,19.868675 340.54135,18.708725 340.092,17.717875 C 339.64265,16.727025 338.98525,15.958475 338.1198,15.413175 C 337.2553,14.867875 336.2844,14.595225 335.2071,14.595225 C 333.67855,14.595225 332.3609,15.120575 331.2589,16.170325 C 330.15405,17.220075 329.60305,18.973775 329.60305,21.430475 z"
   style="fill:#231f20" />
<path
   id="path13"
   d="M 278.2147,67.191975 C 278.2147,64.481625 278.9424,62.361225 280.39875,60.828875 C 281.8532,59.295575 283.73325,58.528925 286.03415,58.528925 C 287.54275,58.528925 288.90125,58.888975 290.1106,59.609075 C 291.3209,60.330125 292.2443,61.333325 292.8789,62.621525 C 293.5135,63.909725 293.8308,65.370825 293.8308,67.002925 C 293.8308,68.658775 293.4964,70.139825 292.82855,71.446075 C 292.1607,72.752325 291.21355,73.742225 289.98805,74.413875 C 288.7635,75.085525 287.4411,75.421825 286.02275,75.421825 C 284.4866,75.421825 283.11195,75.050375 281.90165,74.308425 C 280.69135,73.566475 279.77555,72.551875 279.15045,71.268425 C 278.52535,69.984975 278.2147,68.625525 278.2147,67.191975 z M 280.44055,67.220475 C 280.44055,69.186975 280.9697,70.736425 282.02895,71.868825 C 283.0863,73.000275 284.41535,73.566475 286.0104,73.566475 C 287.63775,73.566475 288.97535,72.994575 290.02795,71.851725 C 291.0777,70.708875 291.60305,69.087225 291.60305,66.986775 C 291.60305,65.658675 291.37885,64.498725 290.9295,63.507875 C 290.48015,62.517025 289.82275,61.748475 288.9573,61.203175 C 288.0928,60.657875 287.1219,60.385225 286.0446,60.385225 C 284.51605,60.385225 283.1984,60.910575 282.0964,61.960325 C 280.99155,63.010075 280.44055,64.763775 280.44055,67.220475 z"
   style="fill:#231f20" />
<path
   id="path17"
   d="M 205.9083,193.35198 L 207.94225,193.17338 C 208.03915,193.99133 208.26335,194.66203 208.6158,195.18643 C 208.96825,195.71083 209.51545,196.13548 210.25835,196.45848 C 211.0003,196.78243 211.83725,196.94393 212.7654,196.94393 C 213.58905,196.94393 214.31675,196.82138 214.94755,196.57533 C 215.57835,196.33023 216.0486,195.99393 216.35735,195.56548 C 216.66515,195.13798 216.81905,194.67153 216.81905,194.16518 C 216.81905,193.65217 216.66895,193.20378 216.3678,192.82093 C 216.06665,192.43903 215.5736,192.11698 214.89055,191.85573 C 214.4526,191.68473 213.48265,191.41873 211.98165,191.05773 C 210.4816,190.69768 209.42995,190.35758 208.8305,190.03838 C 208.0515,189.62893 207.4701,189.12258 207.08915,188.51648 C 206.7082,187.91038 206.5163,187.23302 206.5163,186.48158 C 206.5163,185.65793 206.75,184.88653 207.2174,184.16928 C 207.6848,183.45203 208.36975,182.90768 209.2675,182.53623 C 210.16715,182.16383 211.1656,181.97858 212.2657,181.97858 C 213.47505,181.97858 214.5438,182.17428 215.46815,182.56378 C 216.3944,182.95423 217.105,183.52898 217.60185,184.28613 C 218.1006,185.04423 218.3685,185.90303 218.40555,186.86158 L 216.32695,187.02498 C 216.2158,185.98663 215.83675,185.20383 215.1955,184.67278 C 214.5533,184.14268 213.6033,183.87763 212.3493,183.87763 C 211.04115,183.87763 210.08735,184.11798 209.4898,184.59772 C 208.89225,185.07748 208.59395,185.65508 208.59395,186.33148 C 208.59395,186.91953 208.8058,187.40308 209.22855,187.78118 C 209.64465,188.16022 210.73145,188.54973 212.48895,188.94778 C 214.24645,189.34583 215.45105,189.69353 216.1056,189.99088 C 217.05845,190.42883 217.7605,190.98363 218.21555,191.65623 C 218.6687,192.32883 218.8967,193.10213 218.8967,193.97898 C 218.8967,194.84823 218.6478,195.66618 218.15095,196.43568 C 217.6541,197.20518 216.9397,197.80178 216.00775,198.22928 C 215.07675,198.65678 214.02795,198.87053 212.8642,198.87053 C 211.38695,198.87053 210.15005,198.65488 209.1516,198.22453 C 208.15315,197.79418 207.3713,197.14628 206.80415,196.28178 C 206.237,195.42108 205.9387,194.44353 205.9083,193.35198 z"
   style="fill:#231f20" />
<path
   style="fill:#231f20"
   d="M 115.474,131.61623 L 114.5715,133.08873 L 113.6215,131.61623 L 110.914,95.373725 L 118.1815,95.373725 L 115.474,131.61623 z"
   id="polygon19" />
<path
   style="fill:#231f20"
   d="M 81.8915,115.13373 L 81.8915,113.28123 L 113.6215,131.61623 L 114.5715,133.08873 L 113.764,133.51623 L 81.8915,115.13373 z"
   id="polygon21" />
<path
   style="fill:#231f20"
   d="M 50.0665,133.51623 L 48.4515,132.61373 L 81.8915,113.28123 L 81.8915,115.13373 L 50.0665,133.51623 z"
   id="polygon23" />
<path
   style="fill:#231f20"
   d="M 50.0665,170.28218 L 48.4515,171.23218 L 48.4515,132.61373 L 50.0665,133.51623 L 50.0665,170.28218 z"
   id="polygon25" />
<path
   style="fill:#231f20"
   d="M 27.029,187.80873 L 26.2215,186.38373 L 51.6815,171.70718 L 52.489,173.08373 L 27.029,187.80873 z"
   id="polygon27" />
<path
   style="fill:#231f20"
   d="M 24.2265,182.91623 L 23.419,181.49123 L 48.8315,166.81468 L 49.639,168.19123 L 24.2265,182.91623 z"
   id="polygon29" />
<path
   style="fill:#231f20"
   d="M 81.8915,188.66468 L 81.8915,190.56468 L 48.4515,171.23218 L 50.0665,170.28218 L 81.8915,188.66468 z"
   id="polygon31" />
<path
   style="fill:#231f20"
   d="M 113.764,170.28218 L 114.5715,170.75718 L 114.5715,171.70718 L 81.8915,190.56468 L 81.8915,188.66468 L 113.764,170.28218 z"
   id="polygon33" />
<path
   style="fill:#231f20"
   d="M 108.4915,166.81468 L 109.299,168.19123 L 82.319,183.77123 L 81.5115,182.39468 L 108.4915,166.81468 z"
   id="polygon35" />
<path
   style="fill:#231f20"
   d="M 115.379,170.28218 L 114.5715,170.75718 L 113.764,170.28218 L 113.764,133.51623 L 114.5715,133.08873 L 115.379,133.51623 L 115.379,170.28218 z"
   id="polygon37" />
<path
   style="fill:#231f20"
   d="M 147.204,188.66468 L 147.204,190.56468 L 114.5715,171.70718 L 114.5715,170.75718 L 115.379,170.28218 L 147.204,188.66468 z"
   id="polygon39" />
<path
   style="fill:#231f20"
   d="M 179.029,170.28218 L 180.644,171.23218 L 147.204,190.56468 L 147.204,188.66468 L 179.029,170.28218 z"
   id="polygon41" />
<path
   style="fill:#231f20"
   d="M 179.029,133.51623 L 179.8365,133.08873 L 180.644,133.51623 L 180.644,171.23218 L 179.029,170.28218 L 179.029,133.51623 z"
   id="polygon43" />
<path
   style="fill:#231f20"
   d="M 147.204,115.13373 L 147.204,114.23123 L 148.0115,113.75623 L 178.8865,131.56873 L 179.8365,133.08873 L 179.029,133.51623 L 147.204,115.13373 z"
   id="polygon45" />
<path
   style="fill:#231f20"
   d="M 146.3965,113.75623 L 147.204,114.23123 L 147.204,115.13373 L 115.379,133.51623 L 114.5715,133.08873 L 115.474,131.61623 L 146.3965,113.75623 z"
   id="polygon47" />
<path
   style="fill:#231f20"
   d="M 146.3965,76.041225 L 148.0115,76.991225 L 148.0115,113.75623 L 147.204,114.23123 L 146.3965,113.75623 L 146.3965,76.041225 z"
   id="polygon49" />
<path
   style="fill:#231f20"
   d="M 179.8365,56.708725 L 179.8365,58.608725 L 148.0115,76.991225 L 146.3965,76.041225 L 179.8365,56.708725 z"
   id="polygon51" />
<path
   style="fill:#231f20"
   d="M 211.5665,75.043725 L 212.5165,76.516225 L 211.709,76.991225 L 179.8365,58.608725 L 179.8365,56.708725 L 211.5665,75.043725 z"
   id="polygon53" />
<path
   style="fill:#231f20"
   d="M 213.324,113.61373 L 212.5165,114.23123 L 211.709,113.75623 L 211.709,76.991225 L 212.5165,76.516225 L 213.324,77.086225 L 213.324,113.61373 z"
   id="polygon55" />
<path
   style="fill:#231f20"
   d="M 211.709,113.75623 L 212.5165,114.23123 L 212.6115,115.08623 L 180.644,133.51623 L 179.8365,133.08873 L 180.834,131.56873 L 211.709,113.75623 z"
   id="polygon57" />
<path
   style="fill:#231f20"
   d="M 248.0465,124.91873 L 248.664,126.81873 L 212.6115,115.08623 L 212.5165,114.23123 L 213.324,113.61373 L 248.0465,124.91873 z"
   id="polygon59" />
<path
   style="fill:#231f20"
   d="M 269.5165,95.373725 L 271.5115,95.373725 L 248.664,126.81873 L 248.0465,124.91873 L 269.5165,95.373725 z"
   id="polygon61" />
<path
   style="fill:#231f20"
   d="M 248.0465,65.828725 L 248.379,64.878725 L 250.1365,65.923725 L 271.5115,95.373725 L 269.5165,95.373725 L 248.0465,65.828725 z"
   id="polygon63" />
<path
   style="fill:#231f20"
   d="M 248.189,64.071225 L 248.379,64.878725 L 248.0465,65.828725 L 213.324,77.086225 L 212.5165,76.516225 L 213.419,75.376225 L 248.189,64.071225 z"
   id="polygon65" />
<path
   style="fill:#231f20"
   d="M 235.6015,33.528725 L 242.584,31.486225 L 242.869,33.101225 L 236.1715,35.001225 L 235.6015,33.528725 z"
   id="polygon67" />
<path
   style="fill:#231f20"
   d="M 237.3115,37.898725 L 243.439,36.093725 L 243.724,37.708725 L 237.8815,39.371225 L 237.3115,37.898725 z"
   id="polygon69" />
<path
   style="fill:#231f20"
   d="M 239.0215,42.221225 L 244.294,40.748725 L 244.579,42.316225 L 239.5915,43.741225 L 239.0215,42.221225 z"
   id="polygon71" />
<path
   style="fill:#231f20"
   d="M 240.7315,46.591225 L 245.149,45.356225 L 245.434,46.923725 L 241.349,48.111225 L 240.7315,46.591225 z"
   id="polygon73" />
<path
   style="fill:#231f20"
   d="M 242.4415,50.961225 L 246.004,49.963725 L 246.289,51.531225 L 243.059,52.481225 L 242.4415,50.961225 z"
   id="polygon75" />
<path
   style="fill:#231f20"
   d="M 244.1515,55.331225 L 246.859,54.571225 L 247.144,56.138725 L 244.769,56.851225 L 244.1515,55.331225 z"
   id="polygon77" />
<path
   style="fill:#231f20"
   d="M 245.8615,59.701225 L 247.714,59.178725 L 247.999,60.746225 L 246.479,61.221225 L 245.8615,59.701225 z"
   id="polygon79" />
<path
   style="fill:#231f20"
   d="M 269.279,6.548725 L 269.184,8.543725 L 238.404,29.301225 L 237.5015,27.971225 L 269.279,6.548725 z"
   id="polygon81" />
<path
   style="fill:#231f20"
   d="M 299.869,30.488725 L 297.969,31.011225 L 269.184,8.543725 L 269.279,6.548725 L 299.869,30.488725 z"
   id="polygon83" />
<path
   style="fill:#231f20"
   d="M 324.189,19.706225 L 324.664,21.273725 L 296.4015,29.396225 L 295.974,27.828725 L 324.189,19.706225 z"
   id="polygon85" />
<path
   style="fill:#231f20"
   d="M 325.7565,25.168725 L 326.2315,26.688725 L 297.969,34.811225 L 297.494,33.243725 L 325.7565,25.168725 z"
   id="polygon87" />
<path
   style="fill:#231f20"
   d="M 290.179,57.136225 L 288.659,56.566225 L 297.969,31.011225 L 299.869,30.488725 L 290.179,57.136225 z"
   id="polygon89" />
<path
   style="fill:#231f20"
   d="M 276.214,62.551225 L 275.8815,69.818725 L 250.1365,65.923725 L 248.379,64.878725 L 248.189,64.071225 L 276.214,62.551225 z"
   id="polygon91" />
<path
   style="fill:#231f20"
   d="M 208.859,38.801225 L 216.1265,38.801225 L 213.419,75.376225 L 212.5165,76.516225 L 211.5665,75.043725 L 208.859,38.801225 z"
   id="polygon93" />
<path
   style="fill:#231f20"
   d="M 206.0565,181.68218 L 202.4465,187.99873 L 201.1165,187.04873 L 204.584,181.06468 L 206.0565,181.68218 z"
   id="polygon95" />
<path
   style="fill:#231f20"
   d="M 201.924,179.92373 L 198.789,185.29123 L 197.5065,184.34123 L 200.404,179.25873 L 201.924,179.92373 z"
   id="polygon97" />
<path
   style="fill:#231f20"
   d="M 197.744,178.11968 L 195.179,182.58373 L 193.849,181.63373 L 196.224,177.45373 L 197.744,178.11968 z"
   id="polygon99" />
<path
   style="fill:#231f20"
   d="M 193.564,176.31468 L 191.5215,179.87718 L 190.239,178.92718 L 192.0915,175.69623 L 193.564,176.31468 z"
   id="polygon101" />
<path
   style="fill:#231f20"
   d="M 189.4315,174.50873 L 187.9115,177.16968 L 186.5815,176.17123 L 187.9115,173.89123 L 189.4315,174.50873 z"
   id="polygon103" />
<path
   style="fill:#231f20"
   d="M 185.2515,172.75218 L 184.254,174.46123 L 182.9715,173.46468 L 183.779,172.08623 L 185.2515,172.75218 z"
   id="polygon105" />
<path
   style="fill:#231f20"
   d="M 213.324,226.85373 L 211.709,227.80373 L 211.709,201.01468 L 213.324,201.01468 L 213.324,226.85373 z"
   id="polygon107" />
<path
   id="path111"
   d="M 173.50665,104.35218 L 173.50665,88.023575 L 175.6736,88.023575 L 175.6736,94.733425 L 184.1191,94.733425 L 184.1191,88.023575 L 186.28605,88.023575 L 186.28605,104.35218 L 184.1191,104.35218 L 184.1191,96.662875 L 175.6736,96.662875 L 175.6736,104.35218 L 173.50665,104.35218 L 173.50665,104.35218 z"
   style="fill:#231f20" />
<path
   style="fill:#231f20"
   d="M 176.2265,106.48873 L 183.494,106.48873 L 180.834,131.56873 L 179.8365,133.08873 L 178.8865,131.56873 L 176.2265,106.48873 z"
   id="polygon113" />
<path
   id="path117"
   d="M 206.13915,160.87718 L 206.13915,144.54858 L 208.3061,144.54858 L 208.3061,151.25843 L 216.75255,151.25843 L 216.75255,144.54858 L 218.9195,144.54858 L 218.9195,160.87718 L 216.75255,160.87718 L 216.75255,153.18788 L 208.3061,153.18788 L 208.3061,160.87718 L 206.13915,160.87718 z"
   style="fill:#231f20" />
<path
   style="fill:#231f20"
   d="M 216.1265,142.39873 L 208.859,142.39873 L 209.049,140.78373 L 215.9365,140.78373 L 216.1265,142.39873 z"
   id="polygon119" />
<path
   style="fill:#231f20"
   d="M 215.604,137.88623 L 209.3815,137.88623 L 209.5715,136.27028 L 215.414,136.27028 L 215.604,137.88623 z"
   id="polygon121" />
<path
   style="fill:#231f20"
   d="M 215.0815,133.37373 L 209.904,133.37373 L 210.094,131.75873 L 214.8915,131.75873 L 215.0815,133.37373 z"
   id="polygon123" />
<path
   style="fill:#231f20"
   d="M 214.559,128.86123 L 210.474,128.86123 L 210.664,127.24623 L 214.369,127.24623 L 214.559,128.86123 z"
   id="polygon125" />
<path
   style="fill:#231f20"
   d="M 214.0365,124.39623 L 210.9965,124.39623 L 211.1865,122.78123 L 213.8465,122.78123 L 214.0365,124.39623 z"
   id="polygon127" />
<path
   style="fill:#231f20"
   d="M 213.514,119.88373 L 211.519,119.88373 L 211.709,118.26873 L 213.324,118.26873 L 213.514,119.88373 z"
   id="polygon129" />
<path
   style="fill:#231f20"
   d="M 245.529,245.47373 L 244.7215,246.85218 L 211.709,227.80373 L 213.324,226.85373 L 245.529,245.47373 z"
   id="polygon131" />
<path
   id="path135"
   d="M 172.0522,247.17043 C 172.0522,244.46008 172.7799,242.33967 174.2353,240.80732 C 175.6907,239.27402 177.5698,238.50738 179.87165,238.50738 C 181.3793,238.50738 182.7378,238.86742 183.9481,239.58753 C 185.1584,240.30857 186.0818,241.31178 186.7164,242.59998 C 187.351,243.88817 187.6683,245.34928 187.6683,246.98138 C 187.6683,248.63723 187.3339,250.11828 186.66605,251.42453 C 185.9982,252.73078 185.05105,253.72067 183.82555,254.39232 C 182.601,255.06398 181.2786,255.40028 179.8612,255.40028 C 178.3241,255.40028 176.9504,255.02883 175.7401,254.28688 C 174.5298,253.54492 173.61305,252.53033 172.9889,251.24688 C 172.36475,249.96343 172.0522,248.60303 172.0522,247.17043 z M 174.279,247.19798 C 174.279,249.16448 174.80815,250.71393 175.86645,251.84633 C 176.92475,252.97872 178.25285,253.54398 179.84885,253.54398 C 181.47525,253.54398 182.8138,252.97207 183.86545,251.82923 C 184.9152,250.68638 185.44055,249.06473 185.44055,246.96427 C 185.44055,245.63618 185.21635,244.47622 184.767,243.48538 C 184.31765,242.49453 183.66025,241.72598 182.7948,241.18068 C 181.9303,240.63538 180.9594,240.36273 179.8821,240.36273 C 178.3526,240.36273 177.0359,240.88808 175.93295,241.93783 C 174.83,242.98758 174.279,244.74128 174.279,247.19798 z"
   style="fill:#231f20" />
<path
   style="fill:#231f20"
   d="M 190.2865,244.33373 L 189.479,242.90873 L 214.939,228.23218 L 215.7465,229.65718 L 190.2865,244.33373 z"
   id="polygon137" />
<path
   style="fill:#231f20"
   d="M 187.484,239.44123 L 186.6765,238.01623 L 212.089,223.33967 L 212.8965,224.76468 L 187.484,239.44123 z"
   id="polygon139" />
<path
   id="path143"
   d="M 140.87415,160.87718 L 140.87415,144.54858 L 143.0411,144.54858 L 143.0411,151.25843 L 151.48755,151.25843 L 151.48755,144.54858 L 153.6545,144.54858 L 153.6545,160.87718 L 151.48755,160.87718 L 151.48755,153.18788 L 143.0411,153.18788 L 143.0411,160.87718 L 140.87415,160.87718 z"
   style="fill:#231f20" />
<path
   style="fill:#231f20"
   d="M 150.8615,142.39873 L 143.5465,142.39873 L 143.7365,140.78373 L 150.6715,140.78373 L 150.8615,142.39873 z"
   id="polygon145" />
<path
   style="fill:#231f20"
   d="M 150.2915,137.88623 L 144.1165,137.88623 L 144.3065,136.27028 L 150.1015,136.27028 L 150.2915,137.88623 z"
   id="polygon147" />
<path
   style="fill:#231f20"
   d="M 149.769,133.37373 L 144.639,133.37373 L 144.829,131.75873 L 149.579,131.75873 L 149.769,133.37373 z"
   id="polygon149" />
<path
   style="fill:#231f20"
   d="M 149.2465,128.86123 L 145.1615,128.86123 L 145.3515,127.24623 L 149.0565,127.24623 L 149.2465,128.86123 z"
   id="polygon151" />
<path
   style="fill:#231f20"
   d="M 148.724,124.39623 L 145.684,124.39623 L 145.874,122.78123 L 148.534,122.78123 L 148.724,124.39623 z"
   id="polygon153" />
<path
   style="fill:#231f20"
   d="M 148.2015,119.88373 L 146.2065,119.88373 L 146.3965,118.26873 L 148.0115,118.26873 L 148.2015,119.88373 z"
   id="polygon155" />
</svg>